<svg xmlns="http://www.w3.org/2000/svg" version="1.1" xmlns:xlink="http://www.w3.org/1999/xlink" xmlns:svgjs="http://svgjs.dev/svgjs" width="1500" height="356" viewBox="0 0 1500 356"><g transform="matrix(1,0,0,1,-0.9090909090911055,-1.7370211597394984)"><svg viewBox="0 0 396 94" data-background-color="#ffffff" preserveAspectRatio="xMidYMid meet" height="356" width="800" xmlns="http://www.w3.org/2000/svg" xmlns:xlink="http://www.w3.org/1999/xlink"><g id="tight-bounds" transform="matrix(1,0,0,1,0.24000000000003752,0.45865165453795953)"><svg viewBox="0 0 395.5199999999999 93.08269669092405" height="93.08269669092405" width="295.5199999999999"><g><svg viewBox="0 0 395.5199999999999 93.08269669092405" height="93.08269669092405" width="395.5199999999999"><g><svg viewBox="0 0 395.5199999999999 93.08269669092405" height="93.08269669092405" width="295.5199999999999"><g id="textblocktransform"><svg viewBox="0 0 395.5199999999999 93.08269669092405" height="93.08269669092405" width="395.5199999999999" id="textblock"><g><svg viewBox="0 0 395.5199999999999 93.08269669092405" height="93.08269669092405" width="295.5199999999999"><g transform="matrix(1,0,0,1,0,0)"><svg width="295.5199999999999" viewBox="3.43 -33.48 182.04999999999998 42.86" height="93.08269669092405" data-palette-color="#6d285f"><g class="wordmark-text-0" data-fill-palette-color="primary" id="text-0"><path d="M7.45-33.13L7.45 0 3.43 0 3.43-33.13 7.45-33.13ZM23.87 0.63L23.87 0.63Q18.62 0.63 15.91-2.21 13.2-5.05 13.2-10.38L13.2-10.38 13.2-14.1Q13.2-19.4 15.92-22.23 18.65-25.05 23.87-25.05L23.87-25.05Q29.12-25.05 31.84-22.23 34.55-19.4 34.55-14.1L34.55-14.1 34.55-10.38Q34.55-5.05 31.84-2.21 29.12 0.63 23.87 0.63ZM23.87-2.68L23.87-2.68Q27.12-2.68 28.81-4.6 30.5-6.53 30.5-10.15L30.5-10.15 30.5-14.33Q30.5-17.93 28.81-19.84 27.12-21.75 23.87-21.75L23.87-21.75Q20.65-21.75 18.95-19.84 17.25-17.93 17.25-14.33L17.25-14.33 17.25-10.15Q17.25-6.53 18.95-4.6 20.65-2.68 23.87-2.68ZM49.67-7.3L49.67-7.3Q44.7-7.3 42.03-9.47 39.37-11.65 39.37-15.7L39.37-15.7 39.37-16.32Q39.37-18.85 40.41-20.73 41.45-22.6 43.72-23.66 46-24.73 49.67-24.83L49.67-24.83 62.12-25.23 62.12-22.03 54.77-22.28 54.75-22.1Q56.47-21.75 57.57-20.9 58.67-20.05 59.21-18.78 59.75-17.5 59.75-15.8L59.75-15.8 59.75-15.25Q59.75-11.38 57.2-9.34 54.65-7.3 49.67-7.3ZM49.5 6.15L49.5 6.15 50.07 6.15Q52.32 6.15 53.93 5.81 55.55 5.48 56.42 4.75 57.3 4.03 57.3 2.83L57.3 2.83 57.3 2.73Q57.3 1.33 56.28 0.59 55.27-0.15 52.82-0.38L52.82-0.38 45.92-1 47.07-1.05Q45.67-0.85 44.61-0.4 43.55 0.05 42.95 0.79 42.35 1.53 42.35 2.63L42.35 2.63 42.35 2.68Q42.35 3.95 43.22 4.73 44.1 5.5 45.7 5.83 47.3 6.15 49.5 6.15ZM50 9.38L50 9.38 49.27 9.38Q45.97 9.38 43.58 8.81 41.2 8.25 39.88 6.99 38.57 5.73 38.57 3.6L38.57 3.6 38.57 3.5Q38.57 2 39.28 1 40 0 41.21-0.58 42.42-1.15 43.92-1.35L43.92-1.35 43.9-1.5Q41.85-1.85 40.87-2.71 39.9-3.58 39.9-4.95L39.9-4.95 39.9-4.98Q39.9-5.93 40.33-6.6 40.77-7.28 41.66-7.68 42.55-8.08 43.92-8.18L43.92-8.18 43.92-8.68 48.57-7.5 46.67-7.55Q44.97-7.53 44.32-7.14 43.67-6.75 43.67-5.98L43.67-5.98 43.67-5.95Q43.67-5.13 44.6-4.7 45.52-4.28 47.75-4.03L47.75-4.03 53.67-3.43Q57.55-3.03 59.32-1.56 61.1-0.1 61.1 2.75L61.1 2.75 61.1 2.88Q61.1 5.15 59.75 6.6 58.4 8.05 55.92 8.71 53.45 9.38 50 9.38ZM49.62-10.3L49.62-10.3Q51.72-10.3 53.11-10.91 54.5-11.53 55.21-12.76 55.92-14 55.92-15.8L55.92-15.8 55.92-16.4Q55.92-18.15 55.23-19.38 54.55-20.6 53.17-21.24 51.8-21.88 49.72-21.88L49.72-21.88 49.57-21.88Q47.32-21.88 45.91-21.19 44.5-20.5 43.86-19.26 43.22-18.03 43.22-16.38L43.22-16.38 43.22-15.8Q43.22-14 43.93-12.78 44.65-11.55 46.07-10.93 47.5-10.3 49.62-10.3ZM69.92-24.4L69.92 0 65.87 0 65.87-24.4 69.92-24.4ZM67.89-28.4L67.89-28.4Q66.64-28.4 66.03-29.06 65.42-29.73 65.42-30.88L65.42-30.88 65.42-31Q65.42-32.18 66.03-32.83 66.64-33.48 67.89-33.48L67.89-33.48Q69.14-33.48 69.77-32.83 70.39-32.18 70.39-31L70.39-31 70.39-30.88Q70.39-29.7 69.77-29.05 69.14-28.4 67.89-28.4ZM84.24 0.55L84.24 0.55Q81.29 0.55 79.09-0.09 76.89-0.73 75.44-1.48L75.44-1.48 75.07-5.23Q76.89-4.28 79.08-3.58 81.27-2.88 84.04-2.88L84.04-2.88Q86.87-2.88 88.29-3.78 89.72-4.67 89.72-6.45L89.72-6.45 89.72-6.73Q89.72-7.88 89.18-8.63 88.64-9.38 87.24-9.95 85.84-10.53 83.27-11.1L83.27-11.1Q80.19-11.78 78.42-12.69 76.64-13.6 75.88-14.95 75.12-16.3 75.12-18.25L75.12-18.25 75.12-18.48Q75.12-21.68 77.34-23.33 79.57-24.98 84.04-24.98L84.04-24.98Q86.92-24.98 89.03-24.33 91.14-23.68 92.49-22.88L92.49-22.88 92.87-19.45Q91.24-20.4 89.14-21.03 87.04-21.65 84.42-21.65L84.42-21.65Q82.52-21.65 81.34-21.26 80.17-20.88 79.64-20.16 79.12-19.45 79.12-18.45L79.12-18.45 79.12-18.25Q79.12-17.15 79.64-16.39 80.17-15.63 81.53-15.06 82.89-14.5 85.32-13.98L85.32-13.98Q88.44-13.35 90.28-12.48 92.12-11.6 92.92-10.26 93.72-8.93 93.72-6.83L93.72-6.83 93.72-6.4Q93.72-2.95 91.32-1.2 88.92 0.55 84.24 0.55ZM107.54 0.5L107.54 0.5Q104.71 0.5 102.99-0.35 101.26-1.2 100.49-2.93 99.71-4.65 99.71-7.23L99.71-7.23 99.71-22.63 103.71-22.63 103.71-7.7Q103.71-5.3 104.81-4.16 105.91-3.03 108.51-3.03L108.51-3.03Q109.99-3.03 111.35-3.35 112.71-3.68 113.91-4.28L113.91-4.28 113.54-0.8Q112.36-0.2 110.79 0.15 109.21 0.5 107.54 0.5ZM113.66-24.05L113.29-20.8 95.71-20.8 95.71-24.05 113.66-24.05ZM103.79-31.03L103.61-23.65 99.74-23.65 99.71-30.5 103.79-31.03ZM128.69 0.55L128.69 0.55Q123.11 0.55 120.29-2.18 117.46-4.9 117.46-9.98L117.46-9.98 117.46-14.33Q117.46-19.48 120.09-22.26 122.71-25.05 127.76-25.05L127.76-25.05Q131.16-25.05 133.44-23.79 135.71-22.53 136.86-20.2 138.01-17.88 138.01-14.65L138.01-14.65 138.01-13.75Q138.01-12.95 137.95-12.15 137.89-11.35 137.79-10.58L137.79-10.58 134.06-10.58Q134.11-11.78 134.12-12.85 134.14-13.93 134.14-14.83L134.14-14.83Q134.14-17.05 133.42-18.59 132.71-20.13 131.3-20.94 129.89-21.75 127.76-21.75L127.76-21.75Q124.61-21.75 123.04-19.93 121.46-18.1 121.46-14.7L121.46-14.7 121.46-12.38 121.49-11.88 121.49-9.55Q121.49-8.03 121.94-6.8 122.39-5.58 123.35-4.69 124.31-3.8 125.8-3.34 127.29-2.88 129.34-2.88L129.34-2.88Q131.71-2.88 133.76-3.5 135.81-4.13 137.61-5.2L137.61-5.2 137.24-1.7Q135.61-0.68 133.46-0.06 131.31 0.55 128.69 0.55ZM136.94-13.63L136.94-10.58 119.59-10.58 119.59-13.63 136.94-13.63ZM152.81 0.55L152.81 0.55Q147.56 0.55 145-2.29 142.43-5.13 142.43-10.33L142.43-10.33 142.43-14.13Q142.43-19.35 145.01-22.16 147.58-24.98 152.81-24.98L152.81-24.98Q154.36-24.98 155.63-24.69 156.91-24.4 157.92-23.94 158.93-23.48 159.63-22.98L159.63-22.98 159.98-19.45Q158.81-20.35 157.2-20.98 155.58-21.6 153.41-21.6L153.41-21.6Q149.91-21.6 148.2-19.66 146.48-17.73 146.48-14.03L146.48-14.03 146.48-10.43Q146.48-6.8 148.2-4.85 149.91-2.9 153.41-2.9L153.41-2.9Q155.66-2.9 157.3-3.53 158.93-4.15 160.21-5.05L160.21-5.05 159.83-1.48Q158.73-0.73 156.96-0.09 155.18 0.55 152.81 0.55ZM185.48-15.63L185.48 0 181.43 0 181.43-15.18Q181.43-17.15 180.89-18.57 180.36-20 179.14-20.79 177.93-21.58 175.83-21.58L175.83-21.58Q173.91-21.58 172.5-20.85 171.11-20.13 170.24-18.89 169.38-17.65 169.03-16.07L169.03-16.07 168.13-18.95 169.18-18.95Q169.56-20.6 170.56-21.96 171.56-23.33 173.24-24.14 174.93-24.95 177.36-24.95L177.36-24.95Q180.25-24.95 182.04-23.85 183.83-22.75 184.66-20.69 185.48-18.63 185.48-15.63L185.48-15.63ZM169.16-17.85L169.16 0 165.11 0 165.11-33.13 169.13-33.13 169.13-25.18 169-18.18 169.16-17.85Z" fill="#6d285f" data-fill-palette-color="primary"></path></g></svg></g></svg></g></svg></g></svg></g></svg></g><defs></defs></svg><rect width="395.5199999999999" height="93.08269669092405" fill="none" stroke="none" visibility="hidden"></rect></g></svg></g></svg>